Coordinates
version=1
nRows=8
nColumns=34
inDegrees=yes

Units are S.I. units (second, meters, Newtons, ...)
If the header above contains a line with 'inDegrees', this indicates whether rotational values are in degrees (yes) or radians (no).

endheader
time	pelvis_tilt	pelvis_list	pelvis_rotation	pelvis_tx	pelvis_ty	pelvis_tz	hip_flexion_r	hip_adduction_r	hip_rotation_r	knee_angle_r	ankle_angle_r	subtalar_angle_r	mtp_angle_r	hip_flexion_l	hip_adduction_l	hip_rotation_l	knee_angle_l	ankle_angle_l	subtalar_angle_l	mtp_angle_l	lumbar_extension	lumbar_bending	lumbar_rotation	arm_flex_r	arm_add_r	arm_rot_r	elbow_flex_r	pro_sup_r	arm_flex_l	arm_add_l	arm_rot_l	elbow_flex_l	pro_sup_l
      3.41000000	     -1.88241258	      5.69170133	      5.09070679	     -0.53184993	      0.91473448	     -0.23238527	      4.14588650	     -3.13770197	     -1.64041737	    -56.73734344	    -14.42538873	    -11.91570769	     29.68408312	     16.99002342	      9.78690761	     -0.91146905	    -19.23272288	      1.99268057	      1.57388964	      8.13431416	     -3.86903499	     -5.53661397	     -1.60407455	     -7.02062461	    -16.59429841	      5.59857061	     27.73967791	     90.00000000	     -3.29581765	    -15.72215041	     16.71807570	     20.38958971	     90.00000000
      3.42000000	     -1.99935447	      5.72878743	      4.68640400	     -0.52091188	      0.91594301	     -0.23214315	      6.39444753	     -3.16586885	     -1.14073713	    -58.86339914	    -14.17137423	    -12.86722479	     29.14251202	     16.17262613	      9.59314079	     -1.75640180	    -18.90070695	      2.64673044	      2.58787185	      8.03712177	     -3.84535557	     -5.63560233	     -1.54532819	     -6.85059422	    -16.49463976	      6.14159580	     26.84629519	     90.00000000	     -3.19091208	    -15.85683223	     16.34048634	     21.17981070	     90.00000000
      3.43000000	     -1.85214363	      5.47752625	      4.63335622	     -0.51006410	      0.91770358	     -0.23236022	      8.20338410	     -2.89166610	     -1.08662375	    -60.41876954	    -13.67488500	    -13.10981760	     29.10921653	     15.04236402	      9.24842096	     -1.85111777	    -18.50952482	      2.95189947	      2.87923648	      8.02193361	     -4.21188328	     -5.32324607	     -1.88356270	     -6.90642430	    -16.49717082	      6.24046616	     26.86233492	     90.00000000	     -2.93048730	    -15.91459853	     16.18078620	     21.80899794	     90.00000000
      3.44000000	     -2.25952815	      5.31918431	      4.30255368	     -0.49920390	      0.91841336	     -0.23188157	     10.71618381	     -2.63385340	     -0.61971086	    -61.97312260	    -11.85298734	    -12.57448469	     24.76960594	     14.56730315	      8.90182519	     -2.43348009	    -18.25835834	      4.35081531	      4.35036581	      4.36570216	     -3.80956919	     -5.28541519	     -2.12945190	     -6.21683638	    -16.41468012	      8.57540189	     24.78131501	     90.00000000	     -3.24524940	    -16.08113766	     14.56734646	     23.11618108	     90.00000000
      3.45000000	     -2.19692543	      5.15333456	      4.14822350	     -0.48800915	      0.91995303	     -0.23199253	     12.49048732	     -2.42180991	     -0.46594469	    -62.88661940	    -11.06773597	    -12.36519092	     24.97368015	     13.41894080	      8.68232673	     -2.29045611	    -17.73999863	      4.97879854	      4.53760717	      4.37051758	     -3.98023788	     -5.08656231	     -2.27649722	     -6.46086094	    -16.42340243	      8.57150934	     24.72113019	     90.00000000	     -3.04023671	    -16.17755314	     14.52176753	     23.79711932	     90.00000000
      3.46000000	     -2.35227478	      5.01361805	      3.99007969	     -0.47704137	      0.92095996	     -0.23214510	     14.48171298	     -2.25630950	     -0.24643394	    -63.57581301	     -9.74655929	    -11.54531850	     25.16536649	     12.53534925	      8.53364114	     -2.06681706	    -17.23859672	      5.54273672	      4.54983262	      4.27313766	     -3.88555901	     -4.93004531	     -2.43125612	     -6.59378594	    -16.35506057	      8.60089218	     24.34155333	     90.00000000	     -2.93628619	    -16.31025936	     14.48427856	     24.64138960	     90.00000000
      3.47000000	     -2.38950055	      4.81364026	      3.99462953	     -0.46590252	      0.92207480	     -0.23256697	     16.20634121	     -2.13240441	     -0.30973372	    -63.87445230	     -8.31406679	    -10.59104147	     25.04147798	     11.48948537	      8.37110223	     -1.56793822	    -16.68869723	      6.03855444	      4.36675593	      4.10948790	     -3.91231772	     -4.67086422	     -2.76520353	     -6.77350460	    -16.34765766	      8.68423479	     24.05434556	     90.00000000	     -2.84505694	    -16.37906719	     14.18193327	     25.45282919	     90.00000000
      3.48000000	     -2.37585106	      4.50296548	      3.97545751	     -0.45475796	      0.92326641	     -0.23279658	     17.76232502	     -1.81516575	     -0.32441500	    -63.76196512	     -7.39520274	    -10.07808427	     25.03827430	     10.43044337	      8.06057032	     -1.12991336	    -16.18860211	      6.51505947	      4.32263240	      4.08362912	     -3.98950534	     -4.29515721	     -2.98074768	     -7.08898504	    -16.35845512	      8.58157795	     24.05042859	     90.00000000	     -2.64610529	    -16.43266202	     14.03220021	     26.11168132	     90.00000000
